<?xml version="1.0" encoding="UTF-8"?>
<svg version="1.1" xmlns="http://www.w3.org/2000/svg" width="502" height="497">
<path d="M0 0 C2.34947763 1.01303492 4.62738452 2.11899061 6.91162109 3.27148438 C7.74540283 3.67939209 8.57918457 4.0872998 9.43823242 4.50756836 C15.78116619 7.63510071 22.02528677 10.9399565 28.24365234 14.30664062 C37.44746826 19.27052416 46.86703294 23.80569278 56.34912109 28.20898438 C62.88121384 31.24598528 69.25722932 34.51314211 75.60668945 37.91357422 C85.66722797 43.29756595 95.87424681 48.34400857 106.22412109 53.14648438 C113.15931327 56.36633813 119.91819241 59.85925142 126.65136719 63.48095703 C130.78137328 65.68526416 134.92924287 67.77072491 139.19677734 69.69726562 C140.49059326 70.28423218 140.49059326 70.28423218 141.81054688 70.88305664 C143.45710889 71.62146005 145.11019671 72.3455439 146.77050781 73.05249023 C147.51703613 73.38772705 148.26356445 73.72296387 149.03271484 74.06835938 C149.6868335 74.3503418 150.34095215 74.63232422 151.01489258 74.92285156 C153.8460585 76.93589836 155.18902651 79.26934332 156.91162109 82.27148438 C157.41219234 85.46334934 157.41219234 85.46334934 157.41282654 88.95765686 C157.41836093 89.60445685 157.42389533 90.25125685 157.42959744 90.91765684 C157.44314196 93.0712354 157.42827037 95.22364241 157.41333008 97.37719727 C157.41711551 98.92660513 157.42261741 100.4760096 157.42970276 102.02540588 C157.44364435 106.22374394 157.43249739 110.42167158 157.41599154 114.61998677 C157.40212457 119.01655337 157.40860291 123.41309654 157.41212463 127.80967712 C157.41482517 135.19130048 157.40136367 142.57276108 157.37817383 149.9543457 C157.35155519 158.48637217 157.34982069 167.01812672 157.36156219 175.55018049 C157.37234339 183.76214643 157.36615086 191.97401408 157.35200691 200.18597221 C157.34625107 203.67909508 157.34632661 207.17214593 157.35107231 210.66526985 C157.3558467 214.77839069 157.34572146 218.89121394 157.32411766 223.00427818 C157.31855625 224.51313905 157.31807859 226.02202856 157.32307053 227.53089142 C157.3290332 229.59168896 157.31650105 231.65157964 157.29930115 233.71229553 C157.2956563 235.44141222 157.2956563 235.44141222 157.29193783 237.20546055 C156.86346547 240.65970366 156.00439376 242.51085033 153.91162109 245.27148438 C151.52749725 246.70545617 149.30181555 247.88089745 146.78662109 249.02148438 C145.32597058 249.71596799 143.86636585 250.41265462 142.40771484 251.11132812 C141.6586084 251.46694824 140.90950195 251.82256836 140.13769531 252.18896484 C136.65206739 253.88399382 133.25661372 255.73834451 129.84912109 257.58398438 C121.18321588 262.2321254 112.3133687 266.42735167 103.43115234 270.64257812 C92.39540225 275.88375672 81.55119845 281.44101075 70.77563477 287.19555664 C66.68410766 289.36913595 62.58335055 291.38443686 58.31787109 293.19726562 C52.79466584 295.66298226 47.42815864 298.48263393 42.02880859 301.20703125 C39.97240517 302.24092412 37.91178464 303.26577113 35.84912109 304.28710938 C29.87287952 307.2501199 23.92508187 310.23909528 18.06445312 313.42602539 C12.93811102 316.20887803 7.78697825 318.92086732 2.47412109 321.33398438 C1.58853516 321.73746094 0.70294922 322.1409375 -0.20947266 322.55664062 C-7.51000043 324.3693904 -13.48602603 321.53634699 -19.90087891 318.33398438 C-21.12931519 317.73662476 -21.12931519 317.73662476 -22.38256836 317.12719727 C-29.85358693 313.46336696 -37.20699803 309.57621767 -44.55322266 305.66992188 C-55.10657519 300.06782651 -65.85931678 294.89574935 -76.65087891 289.77148438 C-83.79451876 286.37766019 -90.85287875 282.89102771 -97.80395508 279.11914062 C-107.49751724 273.86088487 -117.39894692 269.03696286 -127.40087891 264.39648438 C-134.54113408 261.0801534 -141.51675933 257.49533392 -148.45874023 253.78295898 C-153.32508707 251.18078352 -158.21716629 248.71513989 -163.27587891 246.50195312 C-165.8123024 244.78002769 -166.72367209 243.01438193 -168.08837891 240.27148438 C-168.46869564 237.18704987 -168.46869564 237.18704987 -168.47605896 233.66760254 C-168.4814445 233.01757342 -168.48683004 232.3675443 -168.49237877 231.69781733 C-168.5066453 229.52751695 -168.49955832 227.35782763 -168.49243164 225.1875 C-168.49813587 223.62838756 -168.50510034 222.0692793 -168.51322937 220.51017761 C-168.53116881 216.28087376 -168.52999112 212.05177729 -168.52428699 207.82244682 C-168.5211967 204.29100058 -168.52728571 200.75959427 -168.53332573 197.22815371 C-168.54737151 188.89767415 -168.54580884 180.56729715 -168.53442383 172.23681641 C-168.52293828 163.64285862 -168.5370254 155.04921273 -168.5638203 146.45529604 C-168.58596929 139.07511334 -168.59261662 131.69502862 -168.58674389 124.31481504 C-168.58337169 119.90762073 -168.58580694 115.50062644 -168.60299492 111.09346008 C-168.61844964 106.94994151 -168.61452521 102.80688559 -168.59568977 98.66338539 C-168.59199998 97.14322817 -168.5951238 95.62303677 -168.60557556 94.102911 C-168.61876155 92.02652831 -168.60726227 89.9516828 -168.58958435 87.87536621 C-168.58937507 86.71394859 -168.58916578 85.55253098 -168.58895016 84.35591888 C-167.97747627 80.58812131 -166.74241928 78.96964033 -164.08837891 76.27148438 C-161.73464914 74.87985144 -159.51002623 73.69852914 -157.04150391 72.56445312 C-156.35264099 72.23536453 -155.66377808 71.90627594 -154.95404053 71.56721497 C-152.75422373 70.51925745 -150.54680199 69.48866224 -148.33837891 68.45898438 C-146.9016169 67.7798379 -145.46541355 67.09950825 -144.02978516 66.41796875 C-141.87764804 65.39631961 -139.72529526 64.37520206 -137.57102966 63.35804749 C-132.50265194 60.96096708 -127.46692194 58.50431688 -122.45166016 55.99804688 C-121.81444031 55.68010666 -121.17722046 55.36216644 -120.52069092 55.03459167 C-116.31139428 52.9205994 -112.16280239 50.71134338 -108.02587891 48.45898438 C-100.64234299 44.45871088 -93.07448859 40.86473379 -85.47094727 37.3034668 C-79.71946672 34.59420753 -74.1368711 31.68219287 -68.57617188 28.60131836 C-66.5358044 27.51065284 -64.52768829 26.54204642 -62.39306641 25.65820312 C-58.52049982 24.03318996 -54.89953477 22.08780968 -51.21337891 20.08398438 C-44.70515875 16.59042832 -38.12815887 13.32520181 -31.41748047 10.23950195 C-27.80126962 8.57096517 -24.23437477 6.84889745 -20.70947266 4.99414062 C-19.64031616 4.43641968 -19.64031616 4.43641968 -18.54956055 3.86743164 C-17.20256402 3.15980526 -15.86136436 2.44097999 -14.52758789 1.70874023 C-9.52797659 -0.90401935 -5.44607389 -1.89982283 0 0 Z M-13.33837891 22.70898438 C-14.77049504 23.45281201 -16.20279209 24.19629142 -17.63525391 24.93945312 C-18.369375 25.32536621 -19.10349609 25.7112793 -19.85986328 26.10888672 C-23.41173763 27.96186937 -27.00068169 29.73916216 -30.58837891 31.52148438 C-31.84898797 32.15130776 -33.10941055 32.78150457 -34.36962891 33.41210938 C-36.27202054 34.36343106 -38.17453034 35.31451251 -40.07739258 36.26489258 C-43.28856693 37.86912319 -46.49787719 39.47675629 -49.70166016 41.09570312 C-56.97061412 44.7610181 -64.27802663 48.31961857 -71.65087891 51.77148438 C-78.00851354 54.75204329 -84.23075997 57.89502976 -90.39428711 61.25634766 C-95.29345444 63.9044405 -100.29119692 66.29472326 -105.33837891 68.64648438 C-112.17837201 71.8376882 -118.91144088 75.18881257 -125.58837891 78.70898438 C-126.3956543 79.13421387 -127.20292969 79.55944336 -128.03466797 79.99755859 C-131.15748988 81.65693517 -134.14168341 83.30702071 -137.08837891 85.27148438 C-136.55212891 85.53960937 -136.01587891 85.80773437 -135.46337891 86.08398438 C-133.74827466 86.9415365 -132.03346796 87.79968379 -130.31884766 88.65820312 C-128.01090535 89.81077891 -125.70114868 90.95912594 -123.38916016 92.10351562 C-116.87790769 95.33363453 -110.41258281 98.61325887 -104.02587891 102.08398438 C-97.01168188 105.87796784 -89.83504106 109.29379619 -82.62890625 112.70556641 C-74.24956765 116.68571834 -65.94271641 120.80062394 -57.65087891 124.95898438 C-57.00649872 125.28210602 -56.36211853 125.60522766 -55.69821167 125.93814087 C-52.59596814 127.4943335 -49.49447651 129.05201537 -46.39355469 130.61083984 C-42.12823954 132.75389448 -37.85879124 134.88861064 -33.58837891 137.02148438 C-30.31900098 138.65617334 -27.06149423 140.28594581 -23.84228516 142.01757812 C-21.1730401 143.5854051 -21.1730401 143.5854051 -18.52587891 142.58398438 C-17.72150391 142.15085937 -16.91712891 141.71773438 -16.08837891 141.27148438 C-11.23689438 138.77643519 -6.43248052 138.57166154 -1.08837891 139.27148438 C1.30687419 140.22344394 3.48382432 141.29265649 5.70849609 142.59179688 C10.26513289 143.9975678 15.12918032 140.78471277 19.18505859 138.73242188 C20.16611572 138.23863037 21.14717285 137.74483887 22.15795898 137.23608398 C23.19041748 136.71151611 24.22287598 136.18694824 25.28662109 135.64648438 C26.90008423 134.83352905 26.90008423 134.83352905 28.54614258 134.00415039 C31.66973911 132.43007108 34.79097627 130.85140554 37.91162109 129.27148438 C40.59749869 127.91406875 43.28472315 126.55941156 45.97412109 125.20898438 C46.58578125 124.9012207 47.19744141 124.59345703 47.82763672 124.27636719 C51.65188366 122.36424372 55.50107719 120.51242479 59.36865234 118.68945312 C69.20850808 114.04884755 78.87842389 109.30198353 88.3293457 103.90966797 C94.49722986 100.4211433 100.8320054 97.38527946 107.25756836 94.40405273 C113.28935591 91.59867322 119.13715926 88.58044565 124.91162109 85.27148438 C121.41061013 82.43522233 117.57189949 80.35808822 113.59912109 78.27148438 C112.86636963 77.88484619 112.13361816 77.49820801 111.37866211 77.09985352 C103.16855806 72.8141401 94.79705634 68.87010773 86.43115234 64.90039062 C76.35838594 60.11655924 66.42794822 55.09946786 56.59912109 49.83398438 C49.80780599 46.19865635 42.91123171 42.84668017 35.93676758 39.57861328 C24.71131646 34.31643207 13.63774193 28.78717105 2.78173828 22.79663086 C-4.10365791 19.04746962 -6.4085508 18.98294637 -13.33837891 22.70898438 Z M-148.08837891 100.27148438 C-148.88309829 103.77448996 -149.21550575 107.00890976 -149.22209167 110.59805298 C-149.22635666 111.65236008 -149.23062164 112.70666718 -149.23501587 113.79292297 C-149.23456268 114.93907578 -149.2341095 116.08522858 -149.23364258 117.26611328 C-149.23700119 118.48122086 -149.2403598 119.69632843 -149.24382019 120.94825745 C-149.25168225 124.2724561 -149.25499705 127.59659229 -149.25563598 130.92079592 C-149.25634757 132.99780195 -149.25848388 135.07480147 -149.26113319 137.15180588 C-149.27037493 144.39775762 -149.27446921 151.64369099 -149.27368164 158.88964844 C-149.27307991 165.64539313 -149.2836534 172.40105822 -149.2994253 179.15678275 C-149.3124889 184.95900938 -149.31786609 190.76120994 -149.31722623 196.56345117 C-149.31697106 200.02820601 -149.31983318 203.49288996 -149.33040428 206.95763016 C-149.3418593 210.8170002 -149.33734573 214.67626023 -149.33129883 218.53564453 C-149.33691833 219.68584579 -149.34253784 220.83604706 -149.34832764 222.02110291 C-149.34413315 223.06977036 -149.33993866 224.11843781 -149.33561707 225.19888306 C-149.33616183 226.11141657 -149.3367066 227.02395008 -149.33726788 227.96413612 C-149.23848402 230.54711601 -149.23848402 230.54711601 -147.08837891 233.27148438 C-144.94419554 234.56561755 -144.94419554 234.56561755 -142.38916016 235.68945312 C-141.43525391 236.13482422 -140.48134766 236.58019531 -139.49853516 237.0390625 C-137.96519531 237.74192383 -137.96519531 237.74192383 -136.40087891 238.45898438 C-129.70896304 241.5870851 -123.06989906 244.72610019 -116.58837891 248.27148438 C-110.35628657 251.66574895 -104.00311418 254.73771138 -97.58837891 257.77148438 C-91.17364363 260.80525737 -84.82047124 263.8772198 -78.58837891 267.27148438 C-71.39710399 271.18379447 -64.03483808 274.69008154 -56.640625 278.20068359 C-44.62140384 283.90817925 -32.75368017 289.85220283 -21.02050781 296.12744141 C-19.70557108 296.83013587 -18.38838856 297.52864621 -17.06884766 298.22265625 C-15.68839045 298.95372678 -14.31652495 299.70115445 -12.95166016 300.4609375 C-11.90558594 301.02458008 -11.90558594 301.02458008 -10.83837891 301.59960938 C-10.21447266 301.94411133 -9.59056641 302.28861328 -8.94775391 302.64355469 C-5.45396338 303.82344298 -3.00557378 302.23209546 0.20458984 300.70507812 C1.50448412 300.04307463 2.80255369 299.37748025 4.09912109 298.70898438 C9.76089671 295.82848875 15.45756518 293.06052223 21.22412109 290.39648438 C28.1379242 287.18530765 34.89675776 283.72701916 41.61401367 280.12353516 C48.56534867 276.40420056 55.61931335 272.89579539 62.67697144 269.38427734 C66.5285408 267.46630363 70.37607251 265.54025923 74.22412109 263.61523438 C75.83087355 262.8118122 77.43764452 262.00842706 79.04443359 261.20507812 C79.84655273 260.80401855 80.64867187 260.40295898 81.47509766 259.98974609 C99.9539388 250.75032552 118.43277995 241.51090495 136.91162109 232.27148438 C136.91162109 189.04148437 136.91162109 145.81148437 136.91162109 101.27148438 C132.29237209 102.81123404 128.20140983 104.5068341 123.91162109 106.70898438 C122.49507294 107.42666627 121.07839908 108.14410006 119.66162109 108.86132812 C118.52080078 109.44116455 118.52080078 109.44116455 117.35693359 110.03271484 C112.88482202 112.29823942 108.39688242 114.53214231 103.91162109 116.77148438 C102.02486835 117.71542685 100.13814917 118.65943641 98.25146484 119.60351562 C94.99633127 121.23137176 91.73907702 122.85473321 88.47802734 124.47070312 C82.2124703 127.57983095 75.99670316 130.74564575 69.84912109 134.08398438 C61.45665353 138.63219733 52.82325258 142.67487587 44.19677734 146.75585938 C40.34216547 148.58132979 36.51345686 150.44879509 32.70532227 152.36914062 C31.00147175 153.22628388 29.28878678 154.06579906 27.57568359 154.90429688 C26.57279297 155.39671875 25.56990234 155.88914063 24.53662109 156.39648438 C23.51826172 156.8940625 22.49990234 157.39164063 21.45068359 157.90429688 C18.83641676 159.15512345 18.83641676 159.15512345 16.91162109 161.27148438 C16.41669104 163.23723842 16.41669104 163.23723842 16.09912109 165.45898438 C15.11150479 170.4372129 12.99518884 173.29530491 9.91162109 177.27148438 C9.91162109 177.93148437 9.91162109 178.59148437 9.91162109 179.27148438 C1.39868692 182.40471709 -6.28190005 184.66983514 -15.08837891 181.27148438 C-20.52815522 178.23776297 -24.883634 174.20733604 -27.08837891 168.27148438 C-27.15992188 166.34755859 -27.15992188 166.34755859 -27.23291016 164.38476562 C-27.67100517 160.78766794 -27.85604349 160.45944112 -30.86962891 158.02148438 C-32.09413288 157.40712727 -33.33541345 156.82548995 -34.58837891 156.27148438 C-35.25619385 155.94664062 -35.92400879 155.62179688 -36.61206055 155.28710938 C-38.75797341 154.25185511 -40.92094344 153.26076626 -43.08837891 152.27148438 C-44.4944574 151.60720554 -45.89941757 150.94055415 -47.30322266 150.27148438 C-49.33003438 149.30810037 -51.35765584 148.34874758 -53.39697266 147.41210938 C-60.26430958 144.25534966 -67.00094779 140.83588272 -73.75369263 137.44335938 C-77.92511881 135.34954913 -82.10081846 133.26428562 -86.27587891 131.17773438 C-88.06495981 130.28323994 -89.85402212 129.38870831 -91.64306641 128.49414062 C-92.53993164 128.04570801 -93.43679687 127.59727539 -94.36083984 127.13525391 C-112.27001953 118.18066406 -130.17919922 109.22607422 -148.08837891 100.27148438 Z " fill="#DC3737" transform="translate(262.08837890625,89.728515625)"/>
<path d="M0 0 C0.99 0.495 0.99 0.495 2 1 C0.125 5.875 0.125 5.875 -1 7 C3.29 7.33 7.58 7.66 12 8 C12 9.32 12 10.64 12 12 C11.34 12 10.68 12 10 12 C10 12.66 10 13.32 10 14 C10.99580078 13.45859375 10.99580078 13.45859375 12.01171875 12.90625 C12.89472656 12.4421875 13.77773438 11.978125 14.6875 11.5 C15.55761719 11.0359375 16.42773438 10.571875 17.32421875 10.09375 C20.11788829 8.95181208 22.01629113 8.78495792 25 9 C21.56642063 11.81951354 17.78631372 13.70001082 13.8125 15.625 C8.1276335 18.41782765 2.5128002 21.30742592 -3.0625 24.3125 C-10.93852655 28.54154535 -18.97849105 32.39771449 -27.07055664 36.19458008 C-31.10350854 38.09464345 -35.08855718 39.99142427 -38.94140625 42.23828125 C-41.2928863 43.59270973 -43.25555138 44.57847876 -45.8125 45.375 C-50.92965496 47.25763235 -55.86018107 49.38749641 -60 53 C-60.93968295 55.24762004 -61.23755017 57.21422933 -61.54296875 59.625 C-62.41574867 64.16047175 -64.87274609 67.67270853 -68 71 C-73.58071303 74.74454497 -80.36343951 76.5697097 -87.06640625 75.74609375 C-95.53979243 73.96137674 -100.49254586 69.01064877 -105.3125 62.125 C-106.40516514 58.74767137 -106.11785058 55.53551747 -106 52 C-107.32 51.34 -108.64 50.68 -110 50 C-108.68 50 -107.36 50 -106 50 C-104.68 46.7 -103.36 43.4 -102 40 C-102.66 39.34 -103.32 38.68 -104 38 C-103.34 37.34 -102.68 36.68 -102 36 C-102.84884766 35.61908203 -102.84884766 35.61908203 -103.71484375 35.23046875 C-104.44832031 34.88628906 -105.18179688 34.54210937 -105.9375 34.1875 C-106.66839844 33.85105469 -107.39929688 33.51460937 -108.15234375 33.16796875 C-110 32 -110 32 -111 29 C-107.73610726 30.01025252 -104.91452941 31.04884034 -101.9375 32.75 C-99.10701189 34.31101427 -99.10701189 34.31101427 -96.4375 33.3125 C-95.633125 32.879375 -94.82875 32.44625 -94 32 C-89.14851547 29.50495082 -84.34410161 29.30017717 -79 30 C-76.60474691 30.95195956 -74.42779678 32.02117211 -72.203125 33.3203125 C-67.64648821 34.72608343 -62.78244078 31.51322839 -58.7265625 29.4609375 C-57.74550537 28.967146 -56.76444824 28.47335449 -55.75366211 27.96459961 C-54.72120361 27.44003174 -53.68874512 26.91546387 -52.625 26.375 C-51.54935791 25.83302979 -50.47371582 25.29105957 -49.36547852 24.73266602 C-46.24188199 23.1585867 -43.12064482 21.57992117 -40 20 C-37.31412259 18.64258447 -34.62696462 17.28779424 -31.9375 15.9375 C-31.3381665 15.63626221 -30.73883301 15.33502441 -30.12133789 15.0246582 C-22.94902877 11.44176505 -15.69898078 8.01795678 -8.45092773 4.59155273 C-7.0230896 3.91394897 -7.0230896 3.91394897 -5.56640625 3.22265625 C-4.70990479 2.81797119 -3.85340332 2.41328613 -2.97094727 1.99633789 C-1.04991755 1.15393438 -1.04991755 1.15393438 0 0 Z " fill="#D72D2D" transform="translate(340,198)"/>
<path d="M0 0 C0.66 0.33 1.32 0.66 2 1 C1.6757435 1.52714725 1.35148701 2.05429451 1.01740456 2.59741592 C-0.28421375 5.67116608 -0.26247283 8.10266376 -0.2784729 11.44134521 C-0.2842653 12.08588063 -0.2900577 12.73041605 -0.29602563 13.39448285 C-0.31301573 15.55177641 -0.31590121 17.70885591 -0.31884766 19.86621094 C-0.32814653 21.41358463 -0.33831515 22.96095331 -0.34928894 24.50831604 C-0.37660762 28.7083478 -0.39174388 32.90834598 -0.40471697 37.10844326 C-0.42033933 41.49805493 -0.4471324 45.88759796 -0.4727478 50.27716064 C-0.51955144 58.58912916 -0.55628788 66.90111056 -0.58942068 75.21314359 C-0.62763086 84.6762184 -0.67704391 94.1392243 -0.72740483 103.60224104 C-0.83074826 123.06811027 -0.92000083 142.53402155 -1 162 C-1.66 162 -2.32 162 -3 162 C-3.07002244 141.32081145 -3.12295495 120.6416424 -3.15543652 99.96235943 C-3.17091786 90.36101511 -3.19203154 80.75974437 -3.22631836 71.15844727 C-3.25618197 62.79179948 -3.27556578 54.42520496 -3.28226548 46.05850536 C-3.28618291 41.62671714 -3.29541558 37.19508136 -3.31719017 32.7633419 C-3.33750741 28.59455517 -3.34384351 24.4259841 -3.33932304 20.25715256 C-3.34015039 18.72485877 -3.34614443 17.19255799 -3.35761642 15.66030693 C-3.3724866 13.57227669 -3.36897442 11.48506664 -3.36076355 9.39701843 C-3.36352893 8.22726314 -3.36629431 7.05750784 -3.36914349 5.85230541 C-3 3 -3 3 -1.47745228 1.10018635 C-0.98989303 0.73712485 -0.50233377 0.37406336 0 0 Z " fill="#D95959" transform="translate(98,166)"/>
<path d="M0 0 C0 44.22 0 88.44 0 134 C-1.98 134.99 -1.98 134.99 -4 136 C-4.495 136.99 -4.495 136.99 -5 138 C-7.31 138 -9.62 138 -12 138 C-8.59919915 135.12239928 -6.59144531 134.53048177 -2 133 C-2 89.77 -2 46.54 -2 2 C-2.66 1.67 -3.32 1.34 -4 1 C-2 0 -2 0 0 0 Z " fill="#481A19" transform="translate(401,189)"/>
<path d="M0 0 C-0.75 1.9375 -0.75 1.9375 -2 4 C-4 4.625 -4 4.625 -6 5 C-6.66 5.66 -7.32 6.32 -8 7 C-8.99 7 -9.98 7 -11 7 C-11 7.66 -11 8.32 -11 9 C-13.31 9.33 -15.62 9.66 -18 10 C-18 10.66 -18 11.32 -18 12 C-18.99 12 -19.98 12 -21 12 C-20.67 12.66 -20.34 13.32 -20 14 C-20.556875 14.12375 -21.11375 14.2475 -21.6875 14.375 C-24.03891504 14.95109326 -24.03891504 14.95109326 -26.3125 16 C-29.56336797 17.20962529 -32.54413677 17.73918013 -36 18 C-36.66 17.34 -37.32 16.68 -38 16 C-29.70265119 11.44824064 -21.32306892 7.07833113 -12.8125 2.9375 C-11.99934326 2.53152588 -11.18618652 2.12555176 -10.34838867 1.70727539 C-9.57986572 1.33852295 -8.81134277 0.96977051 -8.01953125 0.58984375 C-7.00016479 0.09278931 -7.00016479 0.09278931 -5.96020508 -0.41430664 C-3.60689036 -1.11745797 -2.29336983 -0.78601465 0 0 Z " fill="#E3484C" transform="translate(185,126)"/>
<path d="M0 0 C-5.16565276 4.00221745 -10.73984885 7.31295021 -16.9375 9.4375 C-22.01296764 11.28590974 -26.91250336 13.40702091 -31 17 C-32.01907079 19.39420246 -32.41120345 21.36354892 -32.62109375 23.94921875 C-33.08968108 26.48538728 -34.05867688 27.36928858 -36 29 C-36.33 27.02 -36.66 25.04 -37 23 C-36.67 23 -36.34 23 -36 23 C-35.81824219 22.38511719 -35.63648438 21.77023438 -35.44921875 21.13671875 C-35.19785156 20.32847656 -34.94648438 19.52023438 -34.6875 18.6875 C-34.44386719 17.88699219 -34.20023437 17.08648437 -33.94921875 16.26171875 C-32.91929447 13.80770164 -32.1190183 12.59786762 -30 11 C-27.66107252 10.34345895 -25.35978622 9.99763669 -22.9609375 9.625 C-22.31382812 9.41875 -21.66671875 9.2125 -21 9 C-20.67 8.01 -20.34 7.02 -20 6 C-19.34 6 -18.68 6 -18 6 C-18 5.34 -18 4.68 -18 4 C-15.94037148 3.32451422 -13.87715678 2.65995688 -11.8125 2 C-10.66394531 1.62875 -9.51539063 1.2575 -8.33203125 0.875 C-5.35679188 0.09369447 -3.04716104 -0.18363306 0 0 Z " fill="#AC3335" transform="translate(311,234)"/>
<path d="M0 0 C4.53155948 1.36698627 8.42845257 3.20487469 12.5625 5.5 C19.95690807 9.55709196 27.54100974 13.15669342 35.20532227 16.67382812 C36.07342529 17.07794922 36.94152832 17.48207031 37.8359375 17.8984375 C38.61501465 18.25599121 39.3940918 18.61354492 40.19677734 18.98193359 C42 20 42 20 43 22 C39.04 21.67 35.08 21.34 31 21 C30.67 19.68 30.34 18.36 30 17 C27.27680012 15.90014272 27.27680012 15.90014272 24 15 C21.06847974 13.4820716 18.16335848 11.9427811 15.29882812 10.30273438 C10.75191618 7.88073587 7.96504781 8.0922796 3 9 C2.34 8.34 1.68 7.68 1 7 C2.65 6.34 4.3 5.68 6 5 C5.01 4.67 4.02 4.34 3 4 C3 3.34 3 2.68 3 2 C2.01 1.67 1.02 1.34 0 1 C0 0.67 0 0.34 0 0 Z " fill="#933535" transform="translate(124,327)"/>
<path d="M0 0 C5.78299941 1.39985303 10.55171701 3.70406752 15.75 6.5625 C23.31546218 10.65830792 30.96927882 14.42774185 38.85644531 17.86743164 C43.38296558 19.92037157 46.19370853 21.71198663 49 26 C44.53202662 24.60121198 40.36177921 22.86369228 36.125 20.875 C34.97257812 20.33617187 33.82015625 19.79734375 32.6328125 19.2421875 C31.76398438 18.83226562 30.89515625 18.42234375 30 18 C30 17.34 30 16.68 30 16 C29.01 15.8453125 29.01 15.8453125 28 15.6875 C23.50418034 14.657208 18.9009684 13.42877924 15.17578125 10.62890625 C12.3582962 8.51958621 9.35827703 6.95988683 6.25 5.3125 C5.34701172 4.83200195 5.34701172 4.83200195 4.42578125 4.34179688 C2.95211989 3.5581833 1.47627806 2.77867267 0 2 C0 1.34 0 0.68 0 0 Z " fill="#9A3738" transform="translate(366,143)"/>
<path d="M0 0 C0.66 0.33 1.32 0.66 2 1 C1.67 1.66 1.34 2.32 1 3 C0.34 3 -0.32 3 -1 3 C-1 3.99 -1 4.98 -1 6 C-4.3 6.66 -7.6 7.32 -11 8 C-11.33 8.99 -11.66 9.98 -12 11 C-14.30824842 11.71023028 -16.58303983 12.01261364 -18.96875 12.375 C-19.6390625 12.58125 -20.309375 12.7875 -21 13 C-21.33 13.99 -21.66 14.98 -22 16 C-23.65 16 -25.3 16 -27 16 C-27.33 16.99 -27.66 17.98 -28 19 C-32.95 19.495 -32.95 19.495 -38 20 C-36.49118224 16.98236448 -33.88981213 16.59399945 -30.9140625 15.328125 C-27.44073105 13.7451053 -24.10126365 11.94724159 -20.75 10.125 C-6.40031025 2.37896446 -6.40031025 2.37896446 0 0 Z " fill="#A93E3E" transform="translate(229,101)"/>
<path d="M0 0 C0.99 0.33 1.98 0.66 3 1 C1.94683594 1.4846875 0.89367187 1.969375 -0.19140625 2.46875 C-8.84740153 6.4811487 -17.34979402 10.67839953 -25.73046875 15.23828125 C-27.34888672 16.11033203 -27.34888672 16.11033203 -29 17 C-30.08925781 17.59167969 -31.17851562 18.18335938 -32.30078125 18.79296875 C-33.19152344 19.19128906 -34.08226562 19.58960938 -35 20 C-35.66 19.67 -36.32 19.34 -37 19 C-36.67 17.68 -36.34 16.36 -36 15 C-35.34 15 -34.68 15 -34 15 C-34 14.34 -34 13.68 -34 13 C-33.39671875 12.89042969 -32.7934375 12.78085938 -32.171875 12.66796875 C-31.37265625 12.50941406 -30.5734375 12.35085937 -29.75 12.1875 C-28.96109375 12.03667969 -28.1721875 11.88585937 -27.359375 11.73046875 C-24.94855068 11.13016254 -24.94855068 11.13016254 -23.09375 9.5625 C-20.45417052 7.59266457 -17.88356045 6.80025275 -14.75 5.8125 C-13.67234375 5.46832031 -12.5946875 5.12414062 -11.484375 4.76953125 C-10.25460938 4.38861328 -10.25460938 4.38861328 -9 4 C-9 3.34 -9 2.68 -9 2 C-7.329375 1.7834375 -7.329375 1.7834375 -5.625 1.5625 C-2.17857953 1.21627965 -2.17857953 1.21627965 0 0 Z " fill="#9F3839" transform="translate(245,113)"/>
<path d="M0 0 C0 0.66 0 1.32 0 2 C-0.9590625 2.3403125 -0.9590625 2.3403125 -1.9375 2.6875 C-4.27193661 3.85250896 -4.27193661 3.85250896 -4.75 6.625 C-4.8325 7.40875 -4.915 8.1925 -5 9 C-5.99 8.67 -6.98 8.34 -8 8 C-9.91958671 8.45764675 -9.91958671 8.45764675 -11.875 9.3125 C-12.57753906 9.59222656 -13.28007812 9.87195313 -14.00390625 10.16015625 C-15.61482411 10.83793969 -17.21543379 11.5401928 -18.8125 12.25 C-21 13 -21 13 -24 12 C-23.34 12 -22.68 12 -22 12 C-21.979375 11.4225 -21.95875 10.845 -21.9375 10.25 C-20.45577767 6.69386641 -17.38237985 5.44959137 -14 4 C-8.63291139 2.6835443 -8.63291139 2.6835443 -6 4 C-6 3.34 -6 2.68 -6 2 C-2.25 0 -2.25 0 0 0 Z " fill="#CC4143" transform="translate(252,92)"/>
<path d="M0 0 C0.66 0.33 1.32 0.66 2 1 C-7.405 5.95 -7.405 5.95 -17 11 C-15.35 12.65 -13.7 14.3 -12 16 C-14.64 15.34 -17.28 14.68 -20 14 C-16.535 15.485 -16.535 15.485 -13 17 C-15.39763185 19.39763185 -16.33273498 19.34280586 -19.625 19.625 C-20.44226563 19.69976562 -21.25953125 19.77453125 -22.1015625 19.8515625 C-22.72804688 19.90054688 -23.35453125 19.94953125 -24 20 C-24 18.68 -24 17.36 -24 16 C-23.34 16 -22.68 16 -22 16 C-22.66 14.35 -23.32 12.7 -24 11 C-22.90945312 10.56300781 -22.90945312 10.56300781 -21.796875 10.1171875 C-15.13928189 7.402938 -8.74457613 4.42033846 -2.3984375 1.0390625 C-1.60695312 0.69617188 -0.81546875 0.35328125 0 0 Z " fill="#952B2A" transform="translate(145,163)"/>
<path d="M0 0 C2.475 0.495 2.475 0.495 5 1 C5 1.66 5 2.32 5 3 C6.65 3.33 8.3 3.66 10 4 C10.33 4.99 10.66 5.98 11 7 C12.051875 7.103125 13.10375 7.20625 14.1875 7.3125 C17.87430754 7.97733415 19.96638599 8.88566296 23 11 C23 10.34 23 9.68 23 9 C23.66 9 24.32 9 25 9 C28 13.38461538 28 13.38461538 28 16 C24.01207054 14.74577315 20.33050596 13.28484419 16.6015625 11.3984375 C15.62832031 10.90859375 14.65507812 10.41875 13.65234375 9.9140625 C12.65332031 9.40617188 11.65429688 8.89828125 10.625 8.375 C9.60277344 7.859375 8.58054688 7.34375 7.52734375 6.8125 C5.01637331 5.54528127 2.50735439 4.27435444 0 3 C0 2.01 0 1.02 0 0 Z " fill="#A53739" transform="translate(162,212)"/>
<path d="M0 0 C5.16898144 1.51406386 9.6161854 3.8056338 14.3125 6.375 C20.11894647 9.50549181 25.90848525 12.45263929 32 15 C32 15.33 32 15.66 32 16 C27.19789671 16.33503046 25.0170704 15.510669 21 13 C17.80604974 12.28598768 17.80604974 12.28598768 15 12 C15 11.34 15 10.68 15 10 C14.00097656 9.52949219 13.00195312 9.05898437 11.97265625 8.57421875 C10.66901425 7.94584455 9.36564269 7.31690905 8.0625 6.6875 C7.0734668 6.2244043 7.0734668 6.2244043 6.06445312 5.75195312 C4.33723979 4.91049022 2.6639473 3.96052335 1 3 C0.67 2.01 0.34 1.02 0 0 Z " fill="#A13A3A" transform="translate(197,211)"/>
<path d="M0 0 C-4.37424954 3.91803946 -9.16095484 6.18779669 -14.4375 8.625 C-15.27087891 9.01945313 -16.10425781 9.41390625 -16.96289062 9.8203125 C-21.24446843 11.82402322 -25.46462945 13.62832696 -30 15 C-29 12 -29 12 -27.46533203 10.94091797 C-26.81935059 10.62783691 -26.17336914 10.31475586 -25.5078125 9.9921875 C-24.80269531 9.64542969 -24.09757813 9.29867187 -23.37109375 8.94140625 C-22.62988281 8.58949219 -21.88867188 8.23757812 -21.125 7.875 C-20.39152344 7.51535156 -19.65804687 7.15570313 -18.90234375 6.78515625 C-15.94989042 5.34926365 -13.1200218 4.04000727 -10 3 C-9.67 2.34 -9.34 1.68 -9 1 C-5.99083491 -0.07470182 -3.17106439 -0.08808512 0 0 Z " fill="#9B3E40" transform="translate(205,134)"/>
<path d="M0 0 C4.91350761 1.4603614 9.16044482 3.545384 13.625 6 C19.26856538 9.08410262 19.26856538 9.08410262 25 12 C25 12.33 25 12.66 25 13 C23.741875 13.04125 22.48375 13.0825 21.1875 13.125 C20.47980469 13.14820313 19.77210938 13.17140625 19.04296875 13.1953125 C17 13 17 13 14 11 C14 10.34 14 9.68 14 9 C13.443125 9.268125 12.88625 9.53625 12.3125 9.8125 C11.549375 9.874375 10.78625 9.93625 10 10 C7.5 7.6875 7.5 7.6875 5 5 C4.2575 4.62875 3.515 4.2575 2.75 3.875 C1 3 1 3 0 0 Z " fill="#B84345" transform="translate(149,187)"/>
<path d="M0 0 C5.47932789 1.54545146 10.11429181 4.15543212 15 7 C15 7.33 15 7.66 15 8 C13.37512529 8.16788373 11.75009558 8.33426787 10.125 8.5 C8.76761719 8.63921875 8.76761719 8.63921875 7.3828125 8.78125 C4.33379388 9.06115991 2.98018909 8.99339636 0 8 C0 5.36 0 2.72 0 0 Z " fill="#CE3536" transform="translate(232,381)"/>
<path d="M0 0 C0.66 0.33 1.32 0.66 2 1 C1.34 2.65 0.68 4.3 0 6 C-0.66 6 -1.32 6 -2 6 C-2 6.66 -2 7.32 -2 8 C-7.28 8.66 -12.56 9.32 -18 10 C-14.41119123 7.30839342 -10.85752263 5.24536701 -6.875 3.25 C-5.92560547 2.75693359 -5.92560547 2.75693359 -4.95703125 2.25390625 C-3.33560094 1.43802731 -1.66987872 0.71147715 0 0 Z " fill="#A93434" transform="translate(340,198)"/>
<path d="M0 0 C5.24940422 0.93134591 9.2980964 2.04061363 13.9375 4.6875 C19.18865516 7.50680151 23.28089296 7.2289996 29 6 C29 6.66 29 7.32 29 8 C24.55278428 10.36258335 20.77618224 10.10174964 16 9 C13.04956864 7.8516787 10.28816917 6.43226847 7.5 4.9375 C6.77296875 4.56044922 6.0459375 4.18339844 5.296875 3.79492188 C3.52549507 2.87427046 1.76189339 1.93867864 0 1 C0 0.67 0 0.34 0 0 Z " fill="#7F292B" transform="translate(235,403)"/>
<path d="M0 0 C0 0.99 0 1.98 0 3 C-11.9140625 8.95703125 -11.9140625 8.95703125 -14.01269531 9.99853516 C-15.82314111 10.91087529 -17.6121784 11.86538772 -19.3984375 12.82421875 C-20.68621094 13.40623047 -20.68621094 13.40623047 -22 14 C-22.66 13.67 -23.32 13.34 -24 13 C-20.67692308 9.06153846 -20.67692308 9.06153846 -17.25 8.75 C-16.5075 8.8325 -15.765 8.915 -15 9 C-15 8.34 -15 7.68 -15 7 C-10.05 4.69 -5.1 2.38 0 0 Z " fill="#8A2C2F" transform="translate(416,332)"/>
<path d="M0 0 C0.66 0.33 1.32 0.66 2 1 C2 1.99 2 2.98 2 4 C2.33 4.66 2.66 5.32 3 6 C2.443125 6.12375 1.88625 6.2475 1.3125 6.375 C-1.03891504 6.95109326 -1.03891504 6.95109326 -3.3125 8 C-6.56336797 9.20962529 -9.54413677 9.73918013 -13 10 C-13.66 9.34 -14.32 8.68 -15 8 C-12.54665445 6.63603538 -10.08808766 5.28365831 -7.625 3.9375 C-6.92632812 3.54755859 -6.22765625 3.15761719 -5.5078125 2.75585938 C-3.70389816 1.77584822 -1.85416518 0.88124929 0 0 Z " fill="#BB3C3A" transform="translate(162,134)"/>
<path d="M0 0 C2.77942143 0.61415629 5.14480458 1.45302611 7.6796875 2.7421875 C8.36160156 3.08636719 9.04351562 3.43054688 9.74609375 3.78515625 C10.44863281 4.14480469 11.15117187 4.50445312 11.875 4.875 C12.56980469 5.22691406 13.26460938 5.57882813 13.98046875 5.94140625 C15.34419985 6.63226061 16.70717938 7.32460096 18.06933594 8.01855469 C20.70625279 9.35902077 23.35257449 10.68043682 26 12 C26 12.33 26 12.66 26 13 C23.69 12.67 21.38 12.34 19 12 C19 11.34 19 10.68 19 10 C18.030625 9.938125 17.06125 9.87625 16.0625 9.8125 C10.42680468 9.00904038 4.84357067 6.26367638 1.234375 1.83203125 C0.82703125 1.22746094 0.4196875 0.62289062 0 0 Z " fill="#8D3536" transform="translate(340,130)"/>
<path d="M0 0 C0.66 0.33 1.32 0.66 2 1 C0.6875 3 0.6875 3 -1 5 C-1.99 5 -2.98 5 -4 5 C-4 5.66 -4 6.32 -4 7 C-4.66 7 -5.32 7 -6 7 C-6.33 7.66 -6.66 8.32 -7 9 C-7 8.34 -7 7.68 -7 7 C-7.53109375 7.22816406 -8.0621875 7.45632812 -8.609375 7.69140625 C-9.66898438 8.12259766 -9.66898438 8.12259766 -10.75 8.5625 C-11.44609375 8.85253906 -12.1421875 9.14257812 -12.859375 9.44140625 C-15.32267287 10.08420113 -16.59358157 9.6897518 -19 9 C-15.88112823 7.46635461 -12.75402378 5.95031107 -9.625 4.4375 C-8.73554687 3.99986328 -7.84609375 3.56222656 -6.9296875 3.11132812 C-6.07890625 2.70205078 -5.228125 2.29277344 -4.3515625 1.87109375 C-3.56604004 1.48880615 -2.78051758 1.10651855 -1.97119141 0.71264648 C-1.32069824 0.47747314 -0.67020508 0.2422998 0 0 Z " fill="#993A3C" transform="translate(119,156)"/>
<path d="M0 0 C2.90674069 0.6411928 5.42531334 1.56662682 8.109375 2.84765625 C8.86347656 3.20537109 9.61757812 3.56308594 10.39453125 3.93164062 C11.17183594 4.30482422 11.94914063 4.67800781 12.75 5.0625 C13.54277344 5.43955078 14.33554688 5.81660156 15.15234375 6.20507812 C17.10311746 7.13345839 19.05176906 8.06629544 21 9 C19.1484375 10.08203125 19.1484375 10.08203125 17 11 C15.29883624 10.05988318 13.63495707 9.05104383 12 8 C8.80604974 7.28598768 8.80604974 7.28598768 6 7 C6 6.34 6 5.68 6 5 C4.35 4.67 2.7 4.34 1 4 C0.67 2.68 0.34 1.36 0 0 Z " fill="#AD393C" transform="translate(187,359)"/>
<path d="M0 0 C0.66 0.33 1.32 0.66 2 1 C-0.76203532 2.53723734 -3.53585152 4.05184161 -6.3125 5.5625 C-7.09818359 6.00013672 -7.88386719 6.43777344 -8.69335938 6.88867188 C-9.45068359 7.29794922 -10.20800781 7.70722656 -10.98828125 8.12890625 C-12.03302612 8.70233765 -12.03302612 8.70233765 -13.09887695 9.28735352 C-15 10 -15 10 -18 9 C-18 8.01 -18 7.02 -18 6 C-16.35 6 -14.7 6 -13 6 C-12.67 5.01 -12.34 4.02 -12 3 C-10.35 3 -8.7 3 -7 3 C-7 2.34 -7 1.68 -7 1 C-6.01 1.33 -5.02 1.66 -4 2 C-2.65863633 1.34964186 -1.32467746 0.6837045 0 0 Z " fill="#8B3233" transform="translate(173,149)"/>
<path d="M0 0 C4.13380718 0.47697775 7.35140793 1.03046875 11 3 C15.27620373 5.17635816 19.49997743 7.31249154 24 9 C22.28198242 10.10644531 22.28198242 10.10644531 20 11 C17.81762695 10.43261719 17.81762695 10.43261719 15.48828125 9.296875 C14.64845703 8.89339844 13.80863281 8.48992187 12.94335938 8.07421875 C12.07517578 7.63722656 11.20699219 7.20023438 10.3125 6.75 C8.99282227 6.11771484 8.99282227 6.11771484 7.64648438 5.47265625 C1.14804289 2.29608578 1.14804289 2.29608578 0 0 Z " fill="#9B3336" transform="translate(201,233)"/>
<path d="M0 0 C2 3.75 2 3.75 2 6 C2.66 6 3.32 6 4 6 C5.625 8 5.625 8 7 10 C2.91358743 9.26733512 -0.59474154 7.31342025 -4.25 5.4375 C-5.22453125 4.9434668 -5.22453125 4.9434668 -6.21875 4.43945312 C-7.81434294 3.62992435 -9.40742483 2.81544958 -11 2 C-11 1.67 -11 1.34 -11 1 C-7.37 1.33 -3.74 1.66 0 2 C0 1.34 0 0.68 0 0 Z " fill="#A52F33" transform="translate(228,393)"/>
<path d="M0 0 C1.65 0 3.3 0 5 0 C5.33 0.99 5.66 1.98 6 3 C6.66 3 7.32 3 8 3 C8 3.66 8 4.32 8 5 C9.258125 5.268125 10.51625 5.53625 11.8125 5.8125 C14.99448801 6.59532537 17.00244311 7.25335928 19 10 C18.01 10.495 18.01 10.495 17 11 C14.23625403 9.83197075 11.60733057 8.60463167 8.9375 7.25 C8.19177734 6.8890625 7.44605469 6.528125 6.67773438 6.15625 C5.96810547 5.80046875 5.25847656 5.4446875 4.52734375 5.078125 C3.87499756 4.75231445 3.22265137 4.42650391 2.55053711 4.09082031 C1 3 1 3 0 0 Z " fill="#802E2F" transform="translate(96,332)"/>
<path d="M0 0 C2.25393366 1.14133904 2.25393366 1.14133904 6.0078125 0.875 C6.0078125 1.535 6.0078125 2.195 6.0078125 2.875 C1.45975615 3.05335515 -1.8716129 2.87285435 -5.9921875 0.875 C-5.9921875 0.215 -5.9921875 -0.445 -5.9921875 -1.125 C-12.06111379 -1.37787193 -17.15419158 -0.82332609 -22.9921875 0.875 C-21.9921875 -1.125 -21.9921875 -1.125 -20.0546875 -2.25 C-12.71876889 -4.34597675 -6.69316512 -3.55651578 0 0 Z " fill="#661C1D" transform="translate(267.9921875,231.125)"/>
<path d="M0 0 C-1.22493466 3.67480397 -2.00892145 3.82485211 -5.3671875 5.515625 C-6.25277344 5.96164063 -7.13835937 6.40765625 -8.05078125 6.8671875 C-8.98277344 7.32351562 -9.91476563 7.77984375 -10.875 8.25 C-11.79925781 8.72179687 -12.72351563 9.19359375 -13.67578125 9.6796875 C-14.56394531 10.12054688 -15.45210937 10.56140625 -16.3671875 11.015625 C-17.18300293 11.42071289 -17.99881836 11.82580078 -18.83935547 12.24316406 C-21 13 -21 13 -24 12 C-23.00097656 11.52949219 -22.00195312 11.05898437 -20.97265625 10.57421875 C-19.66901425 9.94584455 -18.36564269 9.31690905 -17.0625 8.6875 C-16.40314453 8.37876953 -15.74378906 8.07003906 -15.06445312 7.75195312 C-13.33723979 6.91049022 -11.6639473 5.96052335 -10 5 C-9.67 4.01 -9.34 3.02 -9 2 C-7.68 2.33 -6.36 2.66 -5 3 C-5 2.34 -5 1.68 -5 1 C-3 0 -3 0 0 0 Z " fill="#DD6164" transform="translate(148,160)"/>
<path d="M0 0 C-3.75 3 -3.75 3 -6 3 C-6 3.66 -6 4.32 -6 5 C-7.4117783 5.53394179 -8.82970244 6.05165104 -10.25 6.5625 C-11.03890625 6.85253906 -11.8278125 7.14257812 -12.640625 7.44140625 C-15.19103452 8.04522837 -16.55322229 7.8473932 -19 7 C-16.96630002 5.81719526 -14.92487318 4.65416773 -12.875 3.5 C-11.73804688 2.8503125 -10.60109375 2.200625 -9.4296875 1.53125 C-5.92744072 -0.03239549 -3.77825437 -0.32155356 0 0 Z " fill="#9B3031" transform="translate(311,368)"/>
<path d="M0 0 C4.35970831 1.34849837 8.31341438 3.04907846 12.375 5.125 C13.43460938 5.66382813 14.49421875 6.20265625 15.5859375 6.7578125 C16.38257813 7.16773438 17.17921875 7.57765625 18 8 C16.484375 9.2421875 16.484375 9.2421875 14 10 C11.22774845 8.8262169 8.82819404 7.63097724 6.25 6.125 C5.55261719 5.73441406 4.85523438 5.34382812 4.13671875 4.94140625 C2.41639295 3.97519587 0.70707902 2.9894264 -1 2 C-0.67 1.34 -0.34 0.68 0 0 Z " fill="#8E3738" transform="translate(179,202)"/>
<path d="M0 0 C4.50727647 0.60266785 7.8587963 2.36599794 11.8125 4.5625 C12.7087207 5.0565332 12.7087207 5.0565332 13.62304688 5.56054688 C15.08533998 6.36773267 16.5431399 7.18304917 18 8 C18 8.33 18 8.66 18 9 C11.02013687 8.68978386 5.92708478 5.5048042 0 2 C0 1.34 0 0.68 0 0 Z " fill="#98393B" transform="translate(288,104)"/>
<path d="M0 0 C4.74717553 0.45645919 7.30231015 1.0866686 11 4 C13.63239454 5.12525956 16.29516875 6.05330906 19 7 C19 7.99 19 8.98 19 10 C14.95822209 9.25680154 11.45047185 7.39079496 7.8125 5.5625 C7.17119141 5.24990234 6.52988281 4.93730469 5.86914062 4.61523438 C1.12211361 2.24422722 1.12211361 2.24422722 0 0 Z " fill="#843131" transform="translate(117,191)"/>
<path d="M0 0 C4.95621512 0.49562151 8.70281375 1.44215104 13 4 C13.33 4.66 13.66 5.32 14 6 C16.52733235 6.65555119 16.52733235 6.65555119 19 7 C19 7.99 19 8.98 19 10 C14.37324343 8.6077541 10.35313769 6.70479016 6.125 4.375 C4.97257813 3.74335938 3.82015625 3.11171875 2.6328125 2.4609375 C1.32957031 1.73777344 1.32957031 1.73777344 0 1 C0 0.67 0 0.34 0 0 Z " fill="#802D2E" transform="translate(139,355)"/>
<path d="M0 0 C0.66 0.33 1.32 0.66 2 1 C2 1.33 2 1.66 2 2 C3.65 2 5.3 2 7 2 C7 2.99 7 3.98 7 5 C6.278125 4.979375 5.55625 4.95875 4.8125 4.9375 C1.99164706 4.91643458 1.99164706 4.91643458 -0.75 5.5625 C-1.4925 5.706875 -2.235 5.85125 -3 6 C-3.33 5.67 -3.66 5.34 -4 5 C-5.32594105 4.63837971 -6.65938457 4.30271961 -8 4 C-6.71349294 3.30289269 -5.42059335 2.61757124 -4.125 1.9375 C-3.40570313 1.55464844 -2.68640625 1.17179687 -1.9453125 0.77734375 C-1.30335938 0.52082031 -0.66140625 0.26429688 0 0 Z " fill="#AD2926" transform="translate(369,336)"/>
<path d="M0 0 C5.445 1.485 5.445 1.485 11 3 C10.01 3.495 10.01 3.495 9 4 C8.67 4.66 8.34 5.32 8 6 C5.69 6 3.38 6 1 6 C0.34 4.35 -0.32 2.7 -1 1 C-0.67 0.67 -0.34 0.34 0 0 Z " fill="#E0302F" transform="translate(249,392)"/>
<path d="M0 0 C0.66 0.33 1.32 0.66 2 1 C2 2.65 2 4.3 2 6 C-0.64 6.33 -3.28 6.66 -6 7 C-6.66 6.01 -7.32 5.02 -8 4 C-6.71349294 3.30289269 -5.42059335 2.61757124 -4.125 1.9375 C-3.40570313 1.55464844 -2.68640625 1.17179688 -1.9453125 0.77734375 C-1.30335937 0.52082031 -0.66140625 0.26429688 0 0 Z " fill="#CC4442" transform="translate(129,151)"/>
<path d="M0 0 C5.11365014 1.0681847 10.07227969 2.23107476 15 4 C15 5.32 15 6.64 15 8 C9.52067211 6.45454854 4.88570819 3.84456788 0 1 C0 0.67 0 0.34 0 0 Z " fill="#842E2B" transform="translate(362,161)"/>
<path d="M0 0 C4.50727647 0.60266785 7.8587963 2.36599794 11.8125 4.5625 C12.7087207 5.0565332 12.7087207 5.0565332 13.62304688 5.56054688 C15.08533998 6.36773267 16.5431399 7.18304917 18 8 C16.02 8.99 16.02 8.99 14 10 C14 9.34 14 8.68 14 8 C13.484375 7.896875 12.96875 7.79375 12.4375 7.6875 C7.21313431 6.21396096 2.8437209 4.85105329 0 0 Z " fill="#9A383A" transform="translate(322,121)"/>
<path d="M0 0 C2 2 2 2 2 5 C2.66 5.33 3.32 5.66 4 6 C2.03533587 7.06775224 0.03144641 8.06553465 -2 9 C-2.66 8.67 -3.32 8.34 -4 8 C-4.25 5.6875 -4.25 5.6875 -4 3 C-2 1.1875 -2 1.1875 0 0 Z " fill="#DF2E2C" transform="translate(332,369)"/>
<path d="M0 0 C0.66 0.33 1.32 0.66 2 1 C2 1.33 2 1.66 2 2 C2.66 2.33 3.32 2.66 4 3 C2.35 4.65 0.7 6.3 -1 8 C-1.99 7.67 -2.98 7.34 -4 7 C-4 6.34 -4 5.68 -4 5 C-4.66 4.34 -5.32 3.68 -6 3 C-4.03533587 1.93224776 -2.03144641 0.93446535 0 0 Z " fill="#B82A2B" transform="translate(327,357)"/>
<path d="M0 0 C-2.89818662 2.29158942 -5.83140544 4.07862366 -9.125 5.75 C-9.99382812 6.19859375 -10.86265625 6.6471875 -11.7578125 7.109375 C-12.49773437 7.40328125 -13.23765625 7.6971875 -14 8 C-14.66 7.67 -15.32 7.34 -16 7 C-11.86686571 2.52029854 -6.24478666 -0.78059833 0 0 Z " fill="#812C2D" transform="translate(335,222)"/>
<path d="M0 0 C-2.89818662 2.29158942 -5.83140544 4.07862366 -9.125 5.75 C-9.99382812 6.19859375 -10.86265625 6.6471875 -11.7578125 7.109375 C-12.49773437 7.40328125 -13.23765625 7.6971875 -14 8 C-14.66 7.67 -15.32 7.34 -16 7 C-16 6.34 -16 5.68 -16 5 C-14.27656245 4.15488176 -12.54595947 3.32436646 -10.8125 2.5 C-9.36810547 1.80390625 -9.36810547 1.80390625 -7.89453125 1.09375 C-5.01077307 0.00407079 -3.04645139 -0.22277524 0 0 Z " fill="#882D2F" transform="translate(365,207)"/>
<path d="M0 0 C9.84226785 0.62184263 9.84226785 0.62184263 14 4 C14.33 4.99 14.66 5.98 15 7 C11.14974121 6.39644592 8.13898841 5.23227397 4.6875 3.4375 C3.80449219 2.98246094 2.92148437 2.52742188 2.01171875 2.05859375 C1.34785156 1.70925781 0.68398438 1.35992187 0 1 C0 0.67 0 0.34 0 0 Z " fill="#933535" transform="translate(275,118)"/>
<path d="M0 0 C7.3557797 -1.00306087 12.6942879 2.52098642 19 6 C16.50866372 7.24566814 15.70951551 6.87266789 13.0625 6.1875 C12.37285156 6.01605469 11.68320312 5.84460938 10.97265625 5.66796875 C9 5 9 5 6 3 C6 2.34 6 1.68 6 1 C4.02 1 2.04 1 0 1 C0 0.67 0 0.34 0 0 Z " fill="#833332" transform="translate(253,89)"/>
<path d="M0 0 C4.8274799 1.41292095 8.7162359 3.42974154 13 6 C9.6484259 7.13508688 7.64324324 6.87309359 4.3125 5.75 C3.52488281 5.49734375 2.73726562 5.2446875 1.92578125 4.984375 C0 4 0 4 -1 1 C-0.67 0.67 -0.34 0.34 0 0 Z " fill="#913332" transform="translate(170,350)"/>
<path d="M0 0 C0 0.99 0 1.98 0 3 C-1.98 3.33 -3.96 3.66 -6 4 C-6 4.99 -6 5.98 -6 7 C-8.64 7 -11.28 7 -14 7 C-10.33997803 3.94998169 -4.92148529 0 0 0 Z " fill="#882A2B" transform="translate(355,344)"/>
<path d="M0 0 C3.3 0 6.6 0 10 0 C10 1.32 10 2.64 10 4 C9.236875 3.79375 8.47375 3.5875 7.6875 3.375 C4.78114056 2.66608797 4.78114056 2.66608797 2 5 C1.34 3.35 0.68 1.7 0 0 Z " fill="#EA4546" transform="translate(139,187)"/>
<path d="M0 0 C-0.33 0.99 -0.66 1.98 -1 3 C-2.95689037 3.36205464 -4.91557668 3.71441421 -6.875 4.0625 C-7.96554688 4.25972656 -9.05609375 4.45695313 -10.1796875 4.66015625 C-13 5 -13 5 -15 4 C-9.96174932 0.68914955 -5.9781891 -0.1708054 0 0 Z " fill="#BB3E42" transform="translate(146,146)"/>
<path d="M0 0 C0.66 0.33 1.32 0.66 2 1 C1.34 1.66 0.68 2.32 0 3 C0.66 3.33 1.32 3.66 2 4 C1.01 5.485 1.01 5.485 0 7 C-4.05445642 7.43132515 -5.54970958 7.30019361 -9 5 C-7.54735962 4.1361871 -6.0876837 3.28419546 -4.625 2.4375 C-3.40683594 1.72400391 -3.40683594 1.72400391 -2.1640625 0.99609375 C-1.44992187 0.66738281 -0.73578125 0.33867187 0 0 Z " fill="#9D2628" transform="translate(279,381)"/>
<path d="M0 0 C4.8274799 1.41292095 8.7162359 3.42974154 13 6 C13 6.33 13 6.66 13 7 C10.36 7 7.72 7 5 7 C5 6.01 5 5.02 5 4 C4.360625 3.896875 3.72125 3.79375 3.0625 3.6875 C2.381875 3.460625 1.70125 3.23375 1 3 C0.67 2.01 0.34 1.02 0 0 Z " fill="#972F30" transform="translate(208,369)"/>
<path d="M0 0 C5.68502535 1.64566523 10.76681636 4.29032784 16 7 C16 7.33 16 7.66 16 8 C10.46103154 7.5384193 5.60352101 6.25614901 1 3 C0.67 2.01 0.34 1.02 0 0 Z " fill="#8D3535" transform="translate(197,211)"/>
<path d="M0 0 C0.66 0.33 1.32 0.66 2 1 C1.67854004 1.55719727 1.35708008 2.11439453 1.02587891 2.68847656 C-0.1218 5.27444132 -0.31095759 7.16617406 -0.4140625 9.984375 C-0.45273438 10.91894531 -0.49140625 11.85351562 -0.53125 12.81640625 C-0.5621875 13.78449219 -0.593125 14.75257813 -0.625 15.75 C-0.66367188 16.73355469 -0.70234375 17.71710938 -0.7421875 18.73046875 C-0.83628426 21.15346037 -0.92192328 23.57644796 -1 26 C-1.33 26 -1.66 26 -2 26 C-2.2546343 22.23043131 -2.47432236 18.4596223 -2.6875 14.6875 C-2.76033203 13.61564453 -2.83316406 12.54378906 -2.90820312 11.43945312 C-2.96298828 10.41142578 -3.01777344 9.38339844 -3.07421875 8.32421875 C-3.13182373 7.37635498 -3.18942871 6.42849121 -3.2487793 5.4519043 C-3 3 -3 3 -1.49536133 1.16723633 C-1.00189209 0.78204834 -0.50842285 0.39686035 0 0 Z " fill="#B44041" transform="translate(98,166)"/>
<path d="M0 0 C2.97 0 5.94 0 9 0 C9.33 0.99 9.66 1.98 10 3 C9 5 9 5 7.15234375 5.6328125 C6.05599609 5.87644531 6.05599609 5.87644531 4.9375 6.125 C4.20402344 6.29257813 3.47054688 6.46015625 2.71484375 6.6328125 C2.14894531 6.75398437 1.58304687 6.87515625 1 7 C1.99 5.68 2.98 4.36 4 3 C2.68 2.01 1.36 1.02 0 0 Z " fill="#812526" transform="translate(381,171)"/>
<path d="M0 0 C4.24299393 1.31330764 8.03419977 3.01709988 12 5 C14.23525035 5.68636625 14.23525035 5.68636625 16 6 C13.0174228 7.56102512 11.64804044 8.19460386 8.359375 7.20703125 C7.49828125 6.74683594 6.6371875 6.28664062 5.75 5.8125 C4.87859375 5.36519531 4.0071875 4.91789063 3.109375 4.45703125 C1 3 1 3 0 0 Z " fill="#8B3132" transform="translate(229,227)"/>
<path d="M0 0 C4.21878192 -0.19622241 7.17010894 0.19769832 11 2 C11 2.66 11 3.32 11 4 C11.99 4.33 12.98 4.66 14 5 C14 5.66 14 6.32 14 7 C9.0276578 5.50829734 4.58154261 3.39542583 0 1 C0 0.67 0 0.34 0 0 Z " fill="#91383B" transform="translate(140,203)"/>
<path d="M0 0 C11.65243902 3.60670732 11.65243902 3.60670732 15 9 C11.68601362 8.3047581 8.85266022 7.10690971 5.8125 5.625 C4.93207031 5.20476562 4.05164063 4.78453125 3.14453125 4.3515625 C1 3 1 3 0 0 Z " fill="#913132" transform="translate(190,379)"/>
<path d="M0 0 C-2.15514269 4.31028538 -9.23379631 5.7311566 -13.5625 7.25 C-14.366875 7.4975 -15.17125 7.745 -16 8 C-15.67 7.01 -15.34 6.02 -15 5 C-13.68 5 -12.36 5 -11 5 C-11 4.34 -11 3.68 -11 3 C-7.14243493 0.84694043 -4.44870215 -0.39253254 0 0 Z " fill="#8A2E2D" transform="translate(328,378)"/>
<path d="M0 0 C-3.66002197 3.05001831 -9.07851471 7 -14 7 C-14 6.01 -14 5.02 -14 4 C-4.58997722 -0.59225513 -4.58997722 -0.59225513 0 0 Z " fill="#883031" transform="translate(349,215)"/>
<path d="M0 0 C7.30434783 -0.36521739 7.30434783 -0.36521739 10.5 1.3125 C12 3 12 3 12 6 C7.76570244 4.68938409 3.92592596 3.05643741 0 1 C0 0.67 0 0.34 0 0 Z " fill="#953331" transform="translate(307,134)"/>
<path d="M0 0 C0.33 0.66 0.66 1.32 1 2 C0.67 2.66 0.34 3.32 0 4 C0.66 4.33 1.32 4.66 2 5 C1.67 5.99 1.34 6.98 1 8 C-0.32 7.67 -1.64 7.34 -3 7 C-3 5.68 -3 4.36 -3 3 C-4.65 3.33 -6.3 3.66 -8 4 C-5.60490662 1.10067643 -3.68754757 0.49831724 0 0 Z " fill="#E54948" transform="translate(198,119)"/>
<path d="M0 0 C0.99 0.33 1.98 0.66 3 1 C2.34 1 1.68 1 1 1 C0.67 1.99 0.34 2.98 0 4 C-2.1796875 5.421875 -2.1796875 5.421875 -4.875 6.75 C-5.75929688 7.19859375 -6.64359375 7.6471875 -7.5546875 8.109375 C-10 9 -10 9 -13 8 C-11.9275 7.401875 -10.855 6.80375 -9.75 6.1875 C-7.00687812 4.62475178 -4.49484681 2.94043641 -2 1 C-1.34 0.67 -0.68 0.34 0 0 Z " fill="#752425" transform="translate(281,399)"/>
<path d="M0 0 C-3.55991828 2.96659857 -7.65222543 5.381348 -12 7 C-12.66 6.67 -13.32 6.34 -14 6 C-9.83165391 1.36850434 -6.25481529 -0.35741802 0 0 Z " fill="#923032" transform="translate(378,353)"/>
<path d="M0 0 C-1.95330868 1.03041513 -3.91281528 2.0490893 -5.875 3.0625 C-6.96554687 3.63097656 -8.05609375 4.19945312 -9.1796875 4.78515625 C-10.11039062 5.18605469 -11.04109375 5.58695312 -12 6 C-12.66 5.67 -13.32 5.34 -14 5 C-10.82926686 1.03658358 -5.07791308 -2.53895654 0 0 Z " fill="#8D2B2B" transform="translate(312,387)"/>
<path d="M0 0 C4.9430602 0.49430602 8.74976194 1.36890025 13 4 C13.33 4.99 13.66 5.98 14 7 C9.0276578 5.50829734 4.58154261 3.39542583 0 1 C0 0.67 0 0.34 0 0 Z " fill="#8A3032" transform="translate(159,365)"/>
<path d="M0 0 C0.99 0.33 1.98 0.66 3 1 C-1.95 3.31 -6.9 5.62 -12 8 C-12.33 7.01 -12.66 6.02 -13 5 C-11.68 4.67 -10.36 4.34 -9 4 C-9 3.34 -9 2.68 -9 2 C-7.329375 1.7834375 -7.329375 1.7834375 -5.625 1.5625 C-2.17857953 1.21627965 -2.17857953 1.21627965 0 0 Z " fill="#762828" transform="translate(245,113)"/>
<path d="M0 0 C0 0.99 0 1.98 0 3 C-1.24420647 3.5345256 -2.49570936 4.05208611 -3.75 4.5625 C-4.44609375 4.85253906 -5.1421875 5.14257812 -5.859375 5.44140625 C-8.30012784 6.07831803 -9.6403655 5.80248831 -12 5 C-10.37750059 4.16180842 -8.75191503 3.3295884 -7.125 2.5 C-6.22007812 2.0359375 -5.31515625 1.571875 -4.3828125 1.09375 C-2 0 -2 0 0 0 Z " fill="#8F3131" transform="translate(382,178)"/>
<path d="M0 0 C0.66 0.33 1.32 0.66 2 1 C-2.27575688 5.13782924 -6.31953056 6.05944297 -12 7 C-10.54312306 4.08624612 -8.49246097 3.64222221 -5.5625 2.3125 C-4.57378906 1.85488281 -3.58507812 1.39726562 -2.56640625 0.92578125 C-1.29603516 0.46751953 -1.29603516 0.46751953 0 0 Z " fill="#873234" transform="translate(177,127)"/>
<path d="M0 0 C0 0.66 0 1.32 0 2 C-1.65 2.33 -3.3 2.66 -5 3 C-4.67 4.32 -4.34 5.64 -4 7 C-6.64 6.67 -9.28 6.34 -12 6 C-8.59780735 3.25207517 -4.51535412 0 0 0 Z " fill="#892C2D" transform="translate(292,223)"/>
<path d="M0 0 C2.475 0.495 2.475 0.495 5 1 C5 1.66 5 2.32 5 3 C6.65 3.33 8.3 3.66 10 4 C9.67 4.66 9.34 5.32 9 6 C5.65626525 5.44271087 2.96687001 4.64826111 0 3 C0 2.01 0 1.02 0 0 Z " fill="#A03B3C" transform="translate(162,212)"/>
<path d="M0 0 C4.64891954 -0.32434322 7.22406608 0.223578 11 3 C11 3.33 11 3.66 11 4 C9.741875 4.04125 8.48375 4.0825 7.1875 4.125 C6.47980469 4.14820313 5.77210938 4.17140625 5.04296875 4.1953125 C3 4 3 4 0 2 C0 1.34 0 0.68 0 0 Z " fill="#B94245" transform="translate(163,196)"/>
<path d="M0 0 C0.66 0.66 1.32 1.32 2 2 C-3.445 4.475 -3.445 4.475 -9 7 C-9.33 6.34 -9.66 5.68 -10 5 C-8.3125 3 -8.3125 3 -6 1 C-3.3125 0.8125 -3.3125 0.8125 -1 1 C-0.67 0.67 -0.34 0.34 0 0 Z " fill="#E94341" transform="translate(130,167)"/>
<path d="M0 0 C0 0.99 0 1.98 0 3 C-1.1446875 3.4021875 -1.1446875 3.4021875 -2.3125 3.8125 C-4.87380884 4.94424112 -6.19692938 5.91223401 -8 8 C-8.33 7.34 -8.66 6.68 -9 6 C-6.83544304 1.32911392 -6.83544304 1.32911392 -3.9375 0.1875 C-2 0 -2 0 0 0 Z " fill="#E05254" transform="translate(106,165)"/>
<path d="M0 0 C-5.78571429 4.82142857 -5.78571429 4.82142857 -9 6 C-9.99 5.67 -10.98 5.34 -12 5 C-11.34 5 -10.68 5 -10 5 C-9.67 3.68 -9.34 2.36 -9 1 C-5.92677456 0.08941469 -3.19902639 -0.08886184 0 0 Z " fill="#8E3836" transform="translate(205,134)"/>
<path d="M0 0 C0.99 0.66 1.98 1.32 3 2 C1.35 2 -0.3 2 -2 2 C-1.67 3.32 -1.34 4.64 -1 6 C-2.65 6.66 -4.3 7.32 -6 8 C-6.33 6.02 -6.66 4.04 -7 2 C-6.401875 1.855625 -5.80375 1.71125 -5.1875 1.5625 C-3.43849596 1.1127561 -1.71322977 0.57107659 0 0 Z " fill="#BE3739" transform="translate(254,105)"/>
<path d="M0 0 C2.875 0.6875 2.875 0.6875 6 2 C7.375 4.625 7.375 4.625 8 7 C7.34 7.66 6.68 8.32 6 9 C3.375 8.625 3.375 8.625 1 8 C2.32 7.34 3.64 6.68 5 6 C4.67 5.67 4.34 5.34 4 5 C3.67 4.01 3.34 3.02 3 2 C2.01 1.67 1.02 1.34 0 1 C0 0.67 0 0.34 0 0 Z " fill="#B13433" transform="translate(124,327)"/>
<path d="M0 0 C0.66 0 1.32 0 2 0 C2 0.66 2 1.32 2 2 C3.11375 2.0825 4.2275 2.165 5.375 2.25 C9 3 9 3 10.4375 5.0625 C10.7159375 6.0215625 10.7159375 6.0215625 11 7 C6.76570244 5.68938409 2.92592596 4.05643741 -1 2 C-0.67 1.34 -0.34 0.68 0 0 Z " fill="#843132" transform="translate(171,217)"/>
<path d="M0 0 C0 0.66 0 1.32 0 2 C-0.99 2 -1.98 2 -3 2 C-3 3.98 -3 5.96 -3 8 C-3.33 7.34 -3.66 6.68 -4 6 C-7.02934491 5.34227572 -7.02934491 5.34227572 -10 5 C-3.63636364 0 -3.63636364 0 0 0 Z " fill="#992E2D" transform="translate(322,208)"/>
<path d="M0 0 C0.53625 0.226875 1.0725 0.45375 1.625 0.6875 C1.295 1.6775 0.965 2.6675 0.625 3.6875 C-2.75 4.3125 -2.75 4.3125 -6.375 4.6875 C-7.035 4.0275 -7.695 3.3675 -8.375 2.6875 C-2.95961538 -0.38942308 -2.95961538 -0.38942308 0 0 Z " fill="#B74243" transform="translate(155.375,139.3125)"/>
<path d="M0 0 C4.60625394 -0.32136655 7.33513904 0.08966924 11 3 C11 3.99 11 4.98 11 6 C6.95743617 4.77782954 3.50711041 3.37245704 0 1 C0 0.67 0 0.34 0 0 Z " fill="#863031" transform="translate(264,112)"/>
<path d="M0 0 C1.44010481 0.25662245 2.8770687 0.53090821 4.3125 0.8125 C5.11300781 0.96332031 5.91351563 1.11414063 6.73828125 1.26953125 C9.23445587 2.07572236 10.32422106 3.02052002 12 5 C11.01 5.495 11.01 5.495 10 6 C7.6171875 5.00390625 7.6171875 5.00390625 4.875 3.5625 C3.96492187 3.08941406 3.05484375 2.61632812 2.1171875 2.12890625 C1.41851562 1.75636719 0.71984375 1.38382812 0 1 C0 0.67 0 0.34 0 0 Z " fill="#7A272A" transform="translate(173,372)"/>
<path d="M0 0 C1.65 0 3.3 0 5 0 C5.33 0.99 5.66 1.98 6 3 C6.66 3 7.32 3 8 3 C8 3.66 8 4.32 8 5 C4.62537285 4.45276317 2.91765 3.9451 0 2 C0 1.34 0 0.68 0 0 Z " fill="#953938" transform="translate(96,332)"/>
<path d="M0 0 C-0.33 0.33 -0.66 0.66 -1 1 C1.475 1.99 1.475 1.99 4 3 C4 3.66 4 4.32 4 5 C1.03 4.505 1.03 4.505 -2 4 C-2 3.34 -2 2.68 -2 2 C-3.32 2 -4.64 2 -6 2 C-6 1.34 -6 0.68 -6 0 C-3.50907189 -1.24546405 -2.58919267 -0.7767578 0 0 Z " fill="#DC4F51" transform="translate(117,187)"/>
<path d="M0 0 C-0.5625 1.9375 -0.5625 1.9375 -2 4 C-5.625 4.75 -5.625 4.75 -9 5 C-5.28508772 -1.58552632 -5.28508772 -1.58552632 0 0 Z " fill="#CE494A" transform="translate(185,126)"/>
<path d="M0 0 C0.66 0.33 1.32 0.66 2 1 C2.625 3.0625 2.625 3.0625 3 5 C-0.11227195 5 -2.94152152 4.54372951 -6 4 C-4.03617993 2.49440461 -2.21736634 1.10868317 0 0 Z " fill="#BA3D3B" transform="translate(189,121)"/>
<path d="M0 0 C2.64 0.66 5.28 1.32 8 2 C8 2.66 8 3.32 8 4 C8.66 4.33 9.32 4.66 10 5 C4.60158311 5.49076517 4.60158311 5.49076517 1.625 3.0625 C0 1 0 1 0 0 Z " fill="#C7494E" transform="translate(268,95)"/>
<path d="M0 0 C0 0.66 0 1.32 0 2 C-3.45792689 3.58076658 -6.1831068 4.51579638 -10 4 C-10.66 3.01 -11.32 2.02 -12 1 C-10.88625 1.020625 -9.7725 1.04125 -8.625 1.0625 C-5.23767657 1.00409787 -3.30914354 0 0 0 Z " fill="#9C363B" transform="translate(264,409)"/>
<path d="M0 0 C1.44010481 0.25662245 2.8770687 0.53090821 4.3125 0.8125 C5.11300781 0.96332031 5.91351563 1.11414063 6.73828125 1.26953125 C9.23445587 2.07572236 10.32422106 3.02052002 12 5 C11.01 5.495 11.01 5.495 10 6 C7.6171875 5.00390625 7.6171875 5.00390625 4.875 3.5625 C3.96492187 3.08941406 3.05484375 2.61632812 2.1171875 2.12890625 C1.41851562 1.75636719 0.71984375 1.38382812 0 1 C0 0.67 0 0.34 0 0 Z " fill="#782729" transform="translate(205,388)"/>
<path d="M0 0 C0.66 0 1.32 0 2 0 C1 3 1 3 -0.77734375 4.203125 C-1.49019531 4.54859375 -2.20304687 4.8940625 -2.9375 5.25 C-4.00291016 5.78367188 -4.00291016 5.78367188 -5.08984375 6.328125 C-6.03537109 6.66070312 -6.03537109 6.66070312 -7 7 C-7.66 6.67 -8.32 6.34 -9 6 C-8.34 5.01 -7.68 4.02 -7 3 C-3.375 2.3125 -3.375 2.3125 0 2 C0 1.34 0 0.68 0 0 Z " fill="#902F31" transform="translate(292,241)"/>
<path d="M0 0 C0 0.99 0 1.98 0 3 C-4.95 4.485 -4.95 4.485 -10 6 C-10 5.34 -10 4.68 -10 4 C-6.32547562 1.1605948 -4.73113419 0 0 0 Z " fill="#D93B3F" transform="translate(335,219)"/>
<path d="M0 0 C3.85478218 -0.35858439 5.57759458 -0.2754818 8.875 1.875 C9.57625 2.57625 10.2775 3.2775 11 4 C11 4.66 11 5.32 11 6 C6.95743617 4.77782954 3.50711041 3.37245704 0 1 C0 0.67 0 0.34 0 0 Z " fill="#7C2B27" transform="translate(336,148)"/>
<path d="M0 0 C3.01217112 0.64449607 5.51655836 1.65022182 8.25 3.0625 C8.95640625 3.42472656 9.6628125 3.78695312 10.390625 4.16015625 C10.92171875 4.43730469 11.4528125 4.71445313 12 5 C12 5.33 12 5.66 12 6 C7.56084956 6.39168975 4.77977668 5.31940842 1 3 C0.67 2.01 0.34 1.02 0 0 Z " fill="#973737" transform="translate(276,98)"/>
<path d="M0 0 C4.23429756 1.31061591 8.07407404 2.94356259 12 5 C12 5.33 12 5.66 12 6 C9.69 5.67 7.38 5.34 5 5 C5 4.34 5 3.68 5 3 C3.68 3 2.36 3 1 3 C0.67 2.01 0.34 1.02 0 0 Z " fill="#7B2525" transform="translate(232,381)"/>
<path d="M0 0 C-1 3 -1 3 -3.3125 4.25 C-6.09873015 5.0275526 -7.33438378 4.98726527 -10 4 C-9.67 3.34 -9.34 2.68 -9 2 C-7.02 2.495 -7.02 2.495 -5 3 C-5 2.34 -5 1.68 -5 1 C-3 0 -3 0 0 0 Z " fill="#E34F50" transform="translate(148,160)"/>
<path d="M0 0 C-1.65 1.65 -3.3 3.3 -5 5 C-5.99 4.67 -6.98 4.34 -8 4 C-7.67 3.01 -7.34 2.02 -7 1 C-4.53721199 -0.231394 -2.7204945 -0.07159196 0 0 Z " fill="#E54D50" transform="translate(138,150)"/>
<path d="M0 0 C4.97306516 0.49730652 8.63799813 1.55302334 13 4 C13 4.33 13 4.66 13 5 C10.69 4.67 8.38 4.34 6 4 C6 3.34 6 2.68 6 2 C3.03 1.505 3.03 1.505 0 1 C0 0.67 0 0.34 0 0 Z " fill="#A23839" transform="translate(353,138)"/>
<path d="M0 0 C2.64 0 5.28 0 8 0 C8.66 1.65 9.32 3.3 10 5 C6.08788267 3.84414715 3.1254959 2.64465038 0 0 Z " fill="#7C2B2A" transform="translate(297,129)"/>
<path d="M0 0 C-2.6855594 2.6855594 -5.37621328 3.06049974 -9 4 C-9 2.68 -9 1.36 -9 0 C-5.67465243 -1.10844919 -3.37817425 -0.84454356 0 0 Z " fill="#E02E2D" transform="translate(309,385)"/>
<path d="M0 0 C0 0.99 0 1.98 0 3 C-3.83887763 4.48320272 -6.06204091 5.22419163 -10 4 C-8.71086513 3.32845067 -7.41859796 2.66291141 -6.125 2 C-5.40570313 1.62875 -4.68640625 1.2575 -3.9453125 0.875 C-2 0 -2 0 0 0 Z " fill="#792825" transform="translate(291,376)"/>
<path d="M0 0 C-3.1254959 2.64465038 -6.08788267 3.84414715 -10 5 C-10 4.01 -10 3.02 -10 2 C-6.49223216 0.39644899 -3.85645121 -0.22036864 0 0 Z " fill="#962F33" transform="translate(346,369)"/>
<path d="M0 0 C-0.66 0.66 -1.32 1.32 -2 2 C-2.99 2 -3.98 2 -5 2 C-5.33 2.99 -5.66 3.98 -6 5 C-7.32 4.34 -8.64 3.68 -10 3 C-6.68152292 -0.06320961 -4.44849969 -0.3033068 0 0 Z " fill="#EB4040" transform="translate(228,107)"/>
<path d="M0 0 C0 0.66 0 1.32 0 2 C-1.98 2.66 -3.96 3.32 -6 4 C-6 4.66 -6 5.32 -6 6 C-7.65 6 -9.3 6 -11 6 C-8.24029211 2.78034079 -4.3526723 0 0 0 Z " fill="#622323" transform="translate(252,90)"/>
<path d="M0 0 C5 2 5 2 10 4 C9.01 4.66 8.02 5.32 7 6 C4.36 4.68 1.72 3.36 -1 2 C-0.67 1.34 -0.34 0.68 0 0 Z " fill="#9D3938" transform="translate(248,389)"/>
<path d="M0 0 C3.91593446 0.78318689 7.36406635 2.39179858 11 4 C11 4.33 11 4.66 11 5 C8.36 4.67 5.72 4.34 3 4 C2.67 3.01 2.34 2.02 2 1 C1.34 0.67 0.68 0.34 0 0 Z " fill="#822C2B" transform="translate(221,376)"/>
<path d="M0 0 C2.97 0.99 5.94 1.98 9 3 C6 5 6 5 4 5 C3.01 4.67 2.02 4.34 1 4 C0.67 2.68 0.34 1.36 0 0 Z " fill="#D92725" transform="translate(266,234)"/>
<path d="M0 0 C3.91211733 1.15585285 6.8745041 2.35534962 10 5 C4.5388601 4.64766839 4.5388601 4.64766839 2 4 C0.5 1.9375 0.5 1.9375 0 0 Z " fill="#8F3436" transform="translate(149,187)"/>
<path d="M0 0 C6.52307692 0.61538462 6.52307692 0.61538462 8.9375 2.5625 C9.288125 3.036875 9.63875 3.51125 10 4 C9.01 4.495 9.01 4.495 8 5 C6.0546875 4.22265625 6.0546875 4.22265625 3.875 3.0625 C3.15054688 2.68222656 2.42609375 2.30195313 1.6796875 1.91015625 C1.12539062 1.60980469 0.57109375 1.30945313 0 1 C0 0.67 0 0.34 0 0 Z " fill="#852C2E" transform="translate(217,394)"/>
<path d="M0 0 C0.33 0 0.66 0 1 0 C1 2.64 1 5.28 1 8 C-0.32 8.33 -1.64 8.66 -3 9 C-2.44271087 5.65626525 -1.64826111 2.96687001 0 0 Z " fill="#C22B2A" transform="translate(363,353)"/>
<path d="M0 0 C6.52307692 0.61538462 6.52307692 0.61538462 8.9375 2.5625 C9.288125 3.036875 9.63875 3.51125 10 4 C9.01 4.495 9.01 4.495 8 5 C6.0546875 4.22265625 6.0546875 4.22265625 3.875 3.0625 C3.15054688 2.68222656 2.42609375 2.30195313 1.6796875 1.91015625 C1.12539062 1.60980469 0.57109375 1.30945313 0 1 C0 0.67 0 0.34 0 0 Z " fill="#923134" transform="translate(139,355)"/>
<path d="M0 0 C-0.33 1.32 -0.66 2.64 -1 4 C-2.65 4.33 -4.3 4.66 -6 5 C-5.6875 3.0625 -5.6875 3.0625 -5 1 C-2 0 -2 0 0 0 Z " fill="#DD2D2F" transform="translate(414,330)"/>
<path d="M0 0 C-3.1254959 2.64465038 -6.08788267 3.84414715 -10 5 C-9 2 -9 2 -7.25 0.8125 C-4.70039426 -0.10819096 -2.69076919 -0.14948718 0 0 Z " fill="#7F2A2C" transform="translate(311,234)"/>
<path d="M0 0 C-0.33 0.99 -0.66 1.98 -1 3 C-3.06640625 3.73046875 -3.06640625 3.73046875 -5.5625 4.1875 C-6.38878906 4.34605469 -7.21507812 4.50460938 -8.06640625 4.66796875 C-9.02353516 4.83232422 -9.02353516 4.83232422 -10 5 C-10 4.34 -10 3.68 -10 3 C-3.375 0 -3.375 0 0 0 Z " fill="#DC3E3F" transform="translate(312,231)"/>
<path d="M0 0 C0 0.66 0 1.32 0 2 C-0.66 2 -1.32 2 -2 2 C-2 2.66 -2 3.32 -2 4 C-4.64 4.33 -7.28 4.66 -10 5 C-8.28489314 1.56978628 -3.75681361 0 0 0 Z " fill="#732625" transform="translate(370,184)"/>
<path d="M0 0 C-0.66 1.32 -1.32 2.64 -2 4 C-4.31 4 -6.62 4 -9 4 C-8 2 -8 2 -5.0625 0.875 C-2 0 -2 0 0 0 Z " fill="#BA474A" transform="translate(232,119)"/>
<path d="M0 0 C3.14737182 0.69941596 6.02588876 1.76078698 9 3 C9 3.33 9 3.66 9 4 C6.36 4 3.72 4 1 4 C0.67 2.68 0.34 1.36 0 0 Z " fill="#8A302E" transform="translate(187,359)"/>
<path d="M0 0 C1.32 0.33 2.64 0.66 4 1 C4 1.66 4 2.32 4 3 C4.99 3.33 5.98 3.66 7 4 C4.625 4.625 4.625 4.625 2 5 C1.34 4.34 0.68 3.68 0 3 C0 2.01 0 1.02 0 0 Z " fill="#E14544" transform="translate(111,322)"/>
<path d="M0 0 C1.32 0.33 2.64 0.66 4 1 C3.01 2.485 3.01 2.485 2 4 C-1 4.3125 -1 4.3125 -4 4 C-4.66 3.34 -5.32 2.68 -6 2 C-4.02 2 -2.04 2 0 2 C0 1.34 0 0.68 0 0 Z " fill="#D83F3F" transform="translate(274,232)"/>
<path d="M0 0 C2.75 -0.25 2.75 -0.25 6 0 C8.375 2 8.375 2 10 4 C6.13304322 4 3.4911548 2.58090029 0 1 C0 0.67 0 0.34 0 0 Z " fill="#883233" transform="translate(190,228)"/>
<path d="M0 0 C3.78786597 0.5260925 6.17152224 1.38103911 9 4 C9 4.66 9 5.32 9 6 C4.64464931 4.83857315 2.35380297 3.92300495 0 0 Z " fill="#8B3130" transform="translate(322,121)"/>
<path d="M0 0 C0.66 0 1.32 0 2 0 C2 0.66 2 1.32 2 2 C3.32 2.33 4.64 2.66 6 3 C5.67 3.66 5.34 4.32 5 5 C2.03 4.505 2.03 4.505 -1 4 C-0.67 2.68 -0.34 1.36 0 0 Z " fill="#DB4442" transform="translate(276,114)"/>
<path d="M0 0 C1.32 0.66 2.64 1.32 4 2 C2.03533587 3.06775224 0.03144641 4.06553465 -2 5 C-2.66 4.67 -3.32 4.34 -4 4 C-2.68 2.68 -1.36 1.36 0 0 Z " fill="#972E2E" transform="translate(332,373)"/>
<path d="M0 0 C5.75 1.75 5.75 1.75 8 4 C6.3125 4.75 6.3125 4.75 4 5 C1.25 3.0625 1.25 3.0625 -1 1 C-0.67 0.67 -0.34 0.34 0 0 Z " fill="#882E2D" transform="translate(200,365)"/>
<path d="M0 0 C1.65 0.33 3.3 0.66 5 1 C4.67 1.66 4.34 2.32 4 3 C0.9375 3.625 0.9375 3.625 -2 4 C-1.34 2.68 -0.68 1.36 0 0 Z " fill="#E12D2D" transform="translate(367,352)"/>
<path d="M0 0 C0.66 0.33 1.32 0.66 2 1 C0.35 2.98 -1.3 4.96 -3 7 C-3.99 6.67 -4.98 6.34 -6 6 C-4 4 -2 2 0 0 Z " fill="#E02B2E" transform="translate(403,321)"/>
<path d="M0 0 C0.99 0 1.98 0 3 0 C2.6875 1.9375 2.6875 1.9375 2 4 C-1 5 -1 5 -3.1875 4.0625 C-3.785625 3.711875 -4.38375 3.36125 -5 3 C-3.35 2.67 -1.7 2.34 0 2 C0 1.34 0 0.68 0 0 Z " fill="#DB4243" transform="translate(292,223)"/>
<path d="M0 0 C6.75 0.75 6.75 0.75 9 3 C7.3125 3.6875 7.3125 3.6875 5 4 C2.25 2.625 2.25 2.625 0 1 C0 0.67 0 0.34 0 0 Z " fill="#A73B3D" transform="translate(188,208)"/>
<path d="M0 0 C0.99 0.33 1.98 0.66 3 1 C3 1.99 3 2.98 3 4 C2.01 4.66 1.02 5.32 0 6 C-0.66 4.68 -1.32 3.36 -2 2 C-1.34 2 -0.68 2 0 2 C0 1.34 0 0.68 0 0 Z " fill="#E44343" transform="translate(176,202)"/>
<path d="M0 0 C-0.99 1.485 -0.99 1.485 -2 3 C-5.125 3.1875 -5.125 3.1875 -8 3 C-8 2.34 -8 1.68 -8 1 C-5.07175348 0.02391783 -3.04386724 -0.08226668 0 0 Z " fill="#CD4E4C" transform="translate(209,131)"/>
<path d="M0 0 C2.64 0.33 5.28 0.66 8 1 C8.33 1.99 8.66 2.98 9 4 C8.46375 3.855625 7.9275 3.71125 7.375 3.5625 C4.60084173 2.90546252 1.81474612 2.44780052 -1 2 C-0.67 1.34 -0.34 0.68 0 0 Z " fill="#762929" transform="translate(255,108)"/>
<path d="M0 0 C0.33 1.32 0.66 2.64 1 4 C-0.98 4 -2.96 4 -5 4 C-5 3.34 -5 2.68 -5 2 C-2 0 -2 0 0 0 Z " fill="#E12F2A" transform="translate(340,366)"/>
<path d="M0 0 C0.99 0.33 1.98 0.66 3 1 C2.01 2.485 2.01 2.485 1 4 C-2.125 4.1875 -2.125 4.1875 -5 4 C-2.6875 1.9375 -2.6875 1.9375 0 0 Z " fill="#7B292A" transform="translate(301,217)"/>
<path d="M0 0 C0.86625 0.556875 0.86625 0.556875 1.75 1.125 C1.42 2.115 1.09 3.105 0.75 4.125 C0.151875 3.815625 -0.44625 3.50625 -1.0625 3.1875 C-3.33956772 2.02290296 -3.33956772 2.02290296 -6.25 1.125 C-2.80384615 -1.09038462 -2.80384615 -1.09038462 0 0 Z " fill="#D34043" transform="translate(402.25,187.875)"/>
<path d="M0 0 C0.33 1.32 0.66 2.64 1 4 C-0.65 4.33 -2.3 4.66 -4 5 C-4.66 4.01 -5.32 3.02 -6 2 C-2.25 0 -2.25 0 0 0 Z " fill="#B53B3D" transform="translate(127,153)"/>
<path d="M0 0 C1.98 0 3.96 0 6 0 C5.67 0.99 5.34 1.98 5 3 C3.35 3.33 1.7 3.66 0 4 C0 2.68 0 1.36 0 0 Z " fill="#A23D3F" transform="translate(155,155)"/>
<path d="M0 0 C2.02045442 0.60183749 4.02111039 1.27306096 6 2 C6.33 2.66 6.66 3.32 7 4 C5.25 4.6875 5.25 4.6875 3 5 C0.75 3.5625 0.75 3.5625 -1 2 C-0.67 1.34 -0.34 0.68 0 0 Z " fill="#8B2C2D" transform="translate(349,134)"/>
<path d="M0 0 C2.02045442 0.60183749 4.02111039 1.27306096 6 2 C6.33 2.66 6.66 3.32 7 4 C4.69 3.67 2.38 3.34 0 3 C0 2.01 0 1.02 0 0 Z " fill="#893131" transform="translate(315,117)"/>
<path d="M0 0 C3.375 -0.125 3.375 -0.125 7 0 C7.66 0.66 8.32 1.32 9 2 C8.113125 1.979375 7.22625 1.95875 6.3125 1.9375 C3.37830369 1.99286219 0.84506304 2.3305734 -2 3 C-1.34 2.67 -0.68 2.34 0 2 C0 1.34 0 0.68 0 0 Z " fill="#DB575C" transform="translate(252,107)"/>
<path d="M0 0 C-1 3 -1 3 -2.875 4.25 C-5 5 -5 5 -8 4 C-7.34 4 -6.68 4 -6 4 C-5.67 3.01 -5.34 2.02 -5 1 C-2 0 -2 0 0 0 Z " fill="#E64C52" transform="translate(236,100)"/>
</svg>
